HIERARCHY
ROOT Hips
{
  OFFSET -43.3411 73.6987 0
  CHANNELS 6 Xposition Yposition Zposition Zrotation Xrotation Yrotation
  JOINT Bip01_Pelvis
  {
    OFFSET 0 0 0
    CHANNELS 6 Xposition Yposition Zposition Zrotation Xrotation Yrotation
    JOINT BN_Tail_01
    {
      OFFSET -18.6385 -9.591 -2.032e-005
      CHANNELS 6 Xposition Yposition Zposition Zrotation Xrotation Yrotation
      JOINT BN_Tail_02
      {
        OFFSET 20.9743 0 0
        CHANNELS 6 Xposition Yposition Zposition Zrotation Xrotation Yrotation
        JOINT BN_Tail_03
        {
          OFFSET 20.3015 0 0
          CHANNELS 6 Xposition Yposition Zposition Zrotation Xrotation Yrotation
          JOINT BN_Tail_04
          {
            OFFSET 21.6394 -9.91821e-005 0
            CHANNELS 6 Xposition Yposition Zposition Zrotation Xrotation Yrotation
            End Site
            {
              OFFSET 0 0 0
            }
          }
        }
      }
    }
    JOINT Bip01_Spine
    {
      OFFSET 22.1878 -0.659386 3.048e-005
      CHANNELS 6 Xposition Yposition Zposition Zrotation Xrotation Yrotation
      JOINT Bip01_R_Thigh
      {
        OFFSET -22.1873 0.677109 -17.1024
        CHANNELS 6 Xposition Yposition Zposition Zrotation Xrotation Yrotation
        JOINT Bip01_R_Calf
        {
          OFFSET 34.2647 0 0
          CHANNELS 6 Xposition Yposition Zposition Zrotation Xrotation Yrotation
          JOINT Bip01_R_HorseLink
          {
            OFFSET 20.4429 0 0
            CHANNELS 6 Xposition Yposition Zposition Zrotation Xrotation Yrotation
            JOINT Bip01_R_Foot
            {
              OFFSET 16.5673 0 0
              CHANNELS 6 Xposition Yposition Zposition Zrotation Xrotation Yrotation
              JOINT Bip01_R_Toe0
              {
                OFFSET 9.18784 6.94841 0
                CHANNELS 6 Xposition Yposition Zposition Zrotation Xrotation Yrotation
                JOINT Bip01_R_Toe0Nub
                {
                  OFFSET 1.01907 0 0
                  CHANNELS 6 Xposition Yposition Zposition Zrotation Xrotation Yrotation
                  End Site
                  {
                    OFFSET 0 0 0
                  }
                }
              }
            }
          }
        }
      }
      JOINT Bip01_L_Thigh
      {
        OFFSET -22.1873 0.67701 17.1024
        CHANNELS 6 Xposition Yposition Zposition Zrotation Xrotation Yrotation
        JOINT Bip01_L_Calf
        {
          OFFSET 34.2647 0 0
          CHANNELS 6 Xposition Yposition Zposition Zrotation Xrotation Yrotation
          JOINT Bip01_L_HorseLink
          {
            OFFSET 20.4429 0 0
            CHANNELS 6 Xposition Yposition Zposition Zrotation Xrotation Yrotation
            JOINT Bip01_L_Foot
            {
              OFFSET 16.5673 0 0
              CHANNELS 6 Xposition Yposition Zposition Zrotation Xrotation Yrotation
              JOINT Bip01_L_Toe0
              {
                OFFSET 9.18784 6.9484 1.14441e-005
                CHANNELS 6 Xposition Yposition Zposition Zrotation Xrotation Yrotation
                JOINT Bip01_L_Toe0Nub
                {
                  OFFSET 1.01907 0 0
                  CHANNELS 6 Xposition Yposition Zposition Zrotation Xrotation Yrotation
                  End Site
                  {
                    OFFSET 0 0 0
                  }
                }
              }
            }
          }
        }
      }
      JOINT Bip01_Spine1
      {
        OFFSET 39.3372 -0.0249863 0
        CHANNELS 6 Xposition Yposition Zposition Zrotation Xrotation Yrotation
        JOINT Bip01_Neck
        {
          OFFSET 34.2837 -15.5934 -4.318e-005
          CHANNELS 6 Xposition Yposition Zposition Zrotation Xrotation Yrotation
          JOINT Bip01_R_Clavicle
          {
            OFFSET -17.9452 -11.3131 -6.19287
            CHANNELS 6 Xposition Yposition Zposition Zrotation Xrotation Yrotation
            JOINT Bip01_R_UpperArm
            {
              OFFSET 17.4439 1.52588e-005 -2.28882e-005
              CHANNELS 6 Xposition Yposition Zposition Zrotation Xrotation Yrotation
              JOINT Bip01_R_Forearm
              {
                OFFSET 30.6251 1.14441e-005 0
                CHANNELS 6 Xposition Yposition Zposition Zrotation Xrotation Yrotation
                JOINT Bip01_R_Hand
                {
                  OFFSET 31.2039 0 0
                  CHANNELS 6 Xposition Yposition Zposition Zrotation Xrotation Yrotation
                  JOINT Bip01_R_Finger0
                  {
                    OFFSET 22.1039 0.255862 -0.37902
                    CHANNELS 6 Xposition Yposition Zposition Zrotation Xrotation Yrotation
                    JOINT Bip01_R_Finger0Nub
                    {
                      OFFSET 12.0552 0 0
                      CHANNELS 6 Xposition Yposition Zposition Zrotation Xrotation Yrotation
                      End Site
                      {
                        OFFSET 0 0 0
                      }
                    }
                  }
                }
              }
            }
          }
          JOINT Bip01_L_Clavicle
          {
            OFFSET -17.9452 -11.3132 6.19281
            CHANNELS 6 Xposition Yposition Zposition Zrotation Xrotation Yrotation
            JOINT Bip01_L_UpperArm
            {
              OFFSET 17.444 0 1.14441e-005
              CHANNELS 6 Xposition Yposition Zposition Zrotation Xrotation Yrotation
              JOINT Bip01_L_Forearm
              {
                OFFSET 30.6251 0 0
                CHANNELS 6 Xposition Yposition Zposition Zrotation Xrotation Yrotation
                JOINT Bip01_L_Hand
                {
                  OFFSET 31.204 0 0
                  CHANNELS 6 Xposition Yposition Zposition Zrotation Xrotation Yrotation
                  JOINT Bip01_L_Finger0
                  {
                    OFFSET 22.1039 0.255856 0.379024
                    CHANNELS 6 Xposition Yposition Zposition Zrotation Xrotation Yrotation
                    JOINT Bip01_L_Finger0Nub
                    {
                      OFFSET 12.0552 0 0
                      CHANNELS 6 Xposition Yposition Zposition Zrotation Xrotation Yrotation
                      End Site
                      {
                        OFFSET 0 0 0
                      }
                    }
                  }
                }
              }
            }
          }
          JOINT Bip01_Neck1
          {
            OFFSET 14.9359 -0.0106278 0
            CHANNELS 6 Xposition Yposition Zposition Zrotation Xrotation Yrotation
            JOINT Bip01_Head
            {
              OFFSET 14.3578 0.505501 0
              CHANNELS 6 Xposition Yposition Zposition Zrotation Xrotation Yrotation
              JOINT BN_Ear_L_01
              {
                OFFSET 3.76994 -2.35629 12.3444
                CHANNELS 6 Xposition Yposition Zposition Zrotation Xrotation Yrotation
                End Site
                {
                  OFFSET 0 0 0
                }
              }
              JOINT BN_Ear_R_01
              {
                OFFSET 3.76995 -2.35622 -12.3442
                CHANNELS 6 Xposition Yposition Zposition Zrotation Xrotation Yrotation
                End Site
                {
                  OFFSET 0 0 0
                }
              }
              JOINT BN_Mouth_01
              {
                OFFSET 11.8395 10.8645 1.27e-005
                CHANNELS 6 Xposition Yposition Zposition Zrotation Xrotation Yrotation
                JOINT BN_Tongue_01
                {
                  OFFSET 9.73752 3.21674 1.016e-005
                  CHANNELS 6 Xposition Yposition Zposition Zrotation Xrotation Yrotation
                  JOINT BN_Tongue_02
                  {
                    OFFSET 9.04304 0.053505 0
                    CHANNELS 6 Xposition Yposition Zposition Zrotation Xrotation Yrotation
                    End Site
                    {
                      OFFSET 0 0 0
                    }
                  }
                }
                JOINT BN_Beard_01
                {
                  OFFSET 6.93466 -0.751793 0
                  CHANNELS 6 Xposition Yposition Zposition Zrotation Xrotation Yrotation
                  JOINT BN_Beard_02
                  {
                    OFFSET 13.0965 1.52588e-005 0
                    CHANNELS 6 Xposition Yposition Zposition Zrotation Xrotation Yrotation
                    End Site
                    {
                      OFFSET 0 0 0
                    }
                  }
                }
              }
              JOINT Bip01_HeadNub
              {
                OFFSET 25.6158 0 0
                CHANNELS 6 Xposition Yposition Zposition Zrotation Xrotation Yrotation
                End Site
                {
                  OFFSET 0 0 0
                }
              }
            }
          }
        }
      }
    }
  }
}
MOTION
Frames:	4
Frame Time:	0.0333333
-43.3411 73.3613 -0.761718 90.0001 -87.245 -180 -7.62939e-006 4.44089e-016 0 -88.48 5.81122 -79.7621 -18.6385 -9.59101 -1.19209e-007 -44.8668 0.327194 179.941 20.9743 -7.6294e-006 -0.0014354 22.7539 0.195751 15.2272 20.3015 0 -0.00105858 7.73177 2.53046 16.9741 21.6394 7.6294e-006 -0.0010004 10.2956 5.51777 30.7497 21.787 1.59277 3.95159 9.25988 -3.06697 -1.47147 -22.2893 3.05925 -20.3547 -95.6115 -2.24679 179.829 34.2647 3.8147e-006 0 -48.2354 7.09433e-006 7.34109e-006 20.4429 -7.10543e-015 3.8147e-006 70.8674 -3.03094e-007 1.13646e-006 16.5673 7.10543e-015 -3.8147e-006 -21.4992 7.5695 -0.637108 9.18783 6.94842 1.90735e-006 89.5774 1.50133 -0.0661808 1.01909 4.44089e-016 1.90735e-006 -1.30537e-007 -3.87101e-008 -2.67575e-007 -21.4124 1.22793 13.7899 -103.846 18.6225 -175.441 34.2647 -3.8147e-006 -1.90735e-006 -47.6231 -1.23882e-005 -1.22629e-005 20.4429 7.6294e-006 -3.8147e-006 62.7184 5.14409e-006 -9.00667e-006 16.5673 -3.8147e-006 3.8147e-006 -21.436 -2.25284 0.242805 9.18783 6.94841 1.90735e-006 89.5168 -1.72894 0.0743222 1.01907 -1.19209e-007 0 -179.96 -2.90259e-005 4.34004e-005 39.3331 -0.0246506 0.000216007 -9.59526 -0.494717 -6.53756 34.2801 -15.5931 -3.33786e-005 -14.555 -0.0001679 2.18244 -13.504 -16.1508 -6.71166 -163.85 -37.7459 118.407 17.444 0 0 32.2599 52.7582 -95.196 30.6251 7.15257e-007 3.55271e-015 -16.9142 9.49834e-006 2.74391e-006 31.204 3.55272e-015 -3.55271e-015 -137.033 79.9323 137.266 22.1039 0.255849 -0.379024 -7.17355 15.0335 -38.8031 12.0552 -1.90735e-006 -3.55271e-015 179.96 -1.58052e-005 -9.55921e-006 -13.9758 -16.1505 5.66503 -167.184 38.8373 -113.022 17.444 0 -3.8147e-006 63.2096 -51.9465 111.498 30.6251 -5.72205e-006 5.72204e-006 -26.1401 -1.544e-005 -7.78887e-006 31.204 -3.8147e-006 5.72204e-006 99.5342 -86.854 92.5513 22.1039 0.255851 0.37902 -10.0592 -4.19094 38.659 12.0552 -5.72206e-006 7.62938e-006 1.22008e-007 1.02917e-005 -1.87696e-006 14.9375 -0.010376 -0.000136971 12.9614 0.745706 3.46374 14.3578 0.505471 0 11.9386 2.0771 -1.86312 3.7699 -2.35624 12.3444 -172.167 32.7141 -81.1406 3.76994 -2.35619 -12.3441 5.88479 29.4885 114.375 11.8396 10.8645 -4.76837e-007 -177.001 -3.70309 178.785 9.73752 3.21675 1.77636e-015 -2.85748 -2.88938e-007 1.63411e-007 5.1748 0.535279 -0.159797 -9.7303 -1.17996e-006 1.35811e-007 6.93464 -0.751801 -9.53675e-007 -82.2976 -5.21349 -2.08038 13.0965 7.6294e-006 -1.19209e-007 -7.89265 -1.6355 -12.1212 25.6158 2.28882e-005 -4.76837e-007 -6.60127e-008 2.49605e-008 2.39507e-008 
-43.5878 73.0561 -0.761718 91.8215 -87.0363 -178.074 -7.62939e-006 0 -7.10543e-015 -88.4484 5.53368 -80.1411 -18.6385 -9.59101 -1.20998e-007 -44.932 0.32736 179.789 20.9743 -7.62939e-006 -0.0014354 22.6976 0.221808 15.0652 20.3015 7.10543e-013 -0.00105858 7.52222 2.48212 17.0042 21.6394 7.6294e-006 -0.0010004 9.96433 5.4034 30.8525 21.8201 1.48179 3.80897 8.62411 -2.7106 -0.662417 -22.0353 2.79285 -20.5483 -95.9316 -1.78123 179.74 34.2647 3.8147e-006 -1.42109e-014 -49.8311 6.30983e-006 8.00881e-006 20.4429 7.10543e-015 3.8147e-006 71.6187 -2.88285e-007 1.13987e-006 16.5673 -7.10543e-015 -3.8147e-006 -21.164 7.75601 -0.710556 9.18783 6.94842 1.90518e-006 89.4818 1.50067 -0.068573 1.01909 6.21725e-015 1.90735e-006 -1.30537e-007 -3.87101e-008 -2.67575e-007 -21.6392 1.17338 13.6159 -104.817 19.0283 -175.181 34.2647 -3.8147e-006 -1.90735e-006 -49.8112 -1.90112e-005 -6.70887e-006 20.4429 7.6294e-006 -3.8147e-006 63.579 1.31809e-005 -5.0428e-006 16.5673 -3.8147e-006 3.8147e-006 -21.2883 -2.0435 0.338015 9.18783 6.94841 1.90678e-006 89.4922 -1.72895 0.0745344 1.01907 -1.19209e-007 -1.42109e-014 -179.96 -2.90259e-005 4.34003e-005 39.3334 -0.0246506 0.000231397 -8.8471 -0.534458 -6.45014 34.2801 -15.5931 -3.33774e-005 -13.348 0.372453 1.72438 -13.8977 -15.8969 -6.51077 -165.477 -37.5331 117.026 17.444 0 7.10543e-015 30.8218 51.2402 -93.5637 30.6251 7.15257e-007 -1.42108e-014 -21.8051 5.57203e-006 1.28501e-005 31.204 -7.10544e-015 0 -132.869 79.8258 135.226 22.1039 0.255849 -0.379024 -7.34797 14.8621 -38.4135 12.0552 -1.90735e-006 -4.97379e-014 179.96 -1.58052e-005 -9.55906e-006 -14.2708 -15.8161 5.86901 -168.001 39.1754 -113.584 17.444 1.42109e-014 -3.8147e-006 63.6749 -51.0512 111.689 30.6251 -5.72205e-006 5.72204e-006 -28.1856 -1.51835e-005 -8.34334e-006 31.204 -3.8147e-006 5.72204e-006 97.2405 -86.5152 89.817 22.1039 0.255851 0.37902 -10.0637 -4.19036 38.2457 12.0552 -5.72206e-006 7.62938e-006 1.22008e-007 1.02917e-005 -1.87696e-006 14.9375 -0.010376 -0.000136971 11.9649 0.563142 3.45051 14.3578 0.505471 4.65583e-012 9.9678 2.47367 -2.1697 3.7699 -2.35624 12.3444 -172.525 32.4121 -80.5039 3.76994 -2.35619 -12.3441 6.1856 29.2251 114.667 11.8396 10.8645 -4.88026e-007 -176.977 -3.71406 178.876 9.73752 3.21675 -5.15625e-009 -2.85041 -2.87712e-007 1.58843e-007 5.17493 0.535422 -0.159997 -9.73219 -1.77475e-007 1.20103e-007 6.93464 -0.751801 -9.5247e-007 -83.1605 -4.69654 -2.56653 13.0965 7.6294e-006 -1.19209e-007 -7.47709 -1.82691 -12.3264 25.6158 2.28882e-005 -4.76837e-007 -6.60127e-008 2.49605e-008 2.39507e-008 
-43.83 72.7551 -0.761718 94.5542 -86.8219 -175.294 -7.62939e-006 4.44089e-016 0 -88.4127 5.20362 -80.5203 -18.6385 -9.59101 -1.22804e-007 -45.1131 0.326793 179.368 20.9743 -7.62939e-006 -0.0014354 22.55 0.298462 14.616 20.3015 1.52056e-012 -0.00105858 6.95143 2.35239 17.0902 21.6394 7.6294e-006 -0.0010004 9.54757 5.25875 30.983 21.8519 1.35623 3.66632 7.81774 -2.36596 0.14409 -21.7808 2.48618 -20.7388 -95.9836 -1.3176 179.721 34.2647 3.8147e-006 -3.55271e-015 -51.2208 -1.1156e-006 1.3954e-005 20.4429 -2.13163e-014 3.8147e-006 72.3241 -2.73555e-007 1.14215e-006 16.5673 7.10543e-015 -3.8147e-006 -20.889 7.94162 -0.784381 9.18783 6.94842 1.90299e-006 89.388 1.50003 -0.0709218 1.01909 1.9984e-014 1.90735e-006 -1.30537e-007 -3.87101e-008 -2.67575e-007 -21.8671 1.07348 13.4369 -105.6 19.4213 -174.855 34.2647 -3.8147e-006 -1.90735e-006 -51.9508 -1.87586e-005 -7.38235e-006 20.4429 7.6294e-006 -3.8147e-006 64.4658 4.05836e-006 -9.5867e-006 16.5673 -3.8147e-006 3.8147e-006 -21.1822 -1.84047 0.435401 9.18783 6.94841 1.90623e-006 89.468 -1.72896 0.0747415 1.01907 -1.19209e-007 0 -179.96 -2.9026e-005 4.34003e-005 39.3338 -0.0246506 0.000246487 -8.01737 -0.565369 -6.35919 34.2801 -15.5931 -3.33763e-005 -12.0332 0.741303 1.26444 -14.3122 -15.6068 -6.30888 -167.192 -37.285 115.675 17.444 1.42109e-014 -2.13163e-014 29.5645 51.0017 -92.1307 30.6251 7.15257e-007 -2.4869e-014 -24.1273 5.04794e-006 1.30673e-005 31.204 0 7.10542e-015 -129.8 79.7095 133.143 22.1039 0.255849 -0.379024 -7.51824 14.6944 -38.0397 12.0552 -1.90735e-006 -1.06581e-014 179.96 -1.58052e-005 -9.55892e-006 -14.5857 -15.4466 6.07264 -168.917 39.571 -114.204 17.444 0 -3.8147e-006 64.6568 -50.6572 112.23 30.6251 -5.72205e-006 5.72204e-006 -28.8104 -1.511e-005 -8.51258e-006 31.204 -3.8147e-006 5.72204e-006 94.1225 -86.1758 86.8483 22.1039 0.255851 0.37902 -10.0576 -4.18304 38.103 12.0552 -5.72206e-006 7.62938e-006 1.22008e-007 1.02917e-005 -1.87696e-006 14.9375 -0.010376 -0.000136971 10.9714 0.371691 3.43399 14.3578 0.505471 1.1815e-011 7.8862 2.8846 -2.46992 3.7699 -2.35624 12.3444 -173.033 31.9419 -79.6054 3.76994 -2.35619 -12.3441 6.6347 28.8271 115.076 11.8396 10.8645 -4.97435e-007 -176.904 -3.74356 179.12 9.73752 3.21675 -1.02498e-008 -2.84348 -2.85137e-007 1.54353e-007 5.17503 0.53555 -0.160193 -9.73405 -1.70438e-007 1.04349e-007 6.93464 -0.751801 -9.51279e-007 -83.3943 -4.27656 -3.01045 13.0965 7.6294e-006 -1.19209e-007 -6.47714 -2.28179 -12.8242 25.6158 2.28882e-005 -4.76837e-007 -6.60127e-008 2.49605e-008 2.39507e-008 
-44.0749 72.4472 -0.761718 97.9163 -86.5886 -171.928 -7.62939e-006 4.44089e-016 -7.10543e-015 -88.3757 4.84369 -80.9035 -18.6385 -9.59101 -1.24559e-007 -45.4039 0.327993 178.688 20.9743 -7.62939e-006 -0.0014354 22.3105 0.418326 13.8894 20.3015 2.24532e-012 -0.00105858 6.0634 2.1482 17.224 21.6394 7.6294e-006 -0.0010004 8.69445 4.95265 31.2566 21.8829 1.21907 3.52126 6.91907 -2.02613 0.970499 -21.5183 2.15669 -20.9282 -95.8619 -0.849205 179.751 34.2647 3.8147e-006 -7.10543e-015 -52.4826 5.88905e-006 8.29882e-006 20.4429 0 3.8147e-006 73.0065 -2.58948e-007 1.14358e-006 16.5673 -7.10543e-015 -3.8147e-006 -20.6608 8.12854 -0.853721 9.18783 6.94842 1.90075e-006 89.2933 1.49939 -0.0732916 1.01909 3.73035e-014 1.90735e-006 -1.30537e-007 -3.87101e-008 -2.67575e-007 -22.0976 0.946679 13.2494 -106.283 19.8061 -174.469 34.2647 -3.8147e-006 -1.90735e-006 -54.0789 -1.84824e-005 -8.0406e-006 20.4429 7.6294e-006 -3.8147e-006 65.3724 1.30094e-005 -5.49763e-006 16.5673 -3.8147e-006 3.8147e-006 -21.0897 -1.63637 0.53497 9.18783 6.94841 1.90563e-006 89.4437 -1.72897 0.0749509 1.01907 -1.19209e-007 -1.77636e-014 -179.96 -2.9026e-005 4.34003e-005 39.3341 -0.0246506 0.000259187 -7.13971 -0.58797 -6.26291 34.2801 -15.5931 -3.33753e-005 -10.6445 1.10677 0.788044 -14.7359 -15.2906 -6.10237 -168.979 -37.0253 114.317 17.444 1.42109e-014 -4.26326e-014 28.3137 51.3804 -90.7299 30.6251 7.15257e-007 -1.06581e-014 -25.2111 8.85867e-006 4.48129e-006 31.204 -3.55272e-015 1.42108e-014 -127.304 79.5948 131.094 22.1039 0.255849 -0.379024 -7.69008 14.5288 -37.6849 12.0552 -1.90735e-006 3.55271e-014 179.96 -1.58241e-005 1.7762e-005 -14.9067 -15.0515 6.2797 -169.888 40.011 -114.874 17.444 -1.42109e-014 -3.8147e-006 65.9551 -50.5373 112.97 30.6251 -5.72205e-006 5.72204e-006 -28.6165 -1.51499e-005 -8.46335e-006 31.204 -3.8147e-006 5.72204e-006 90.6887 -85.8326 83.8972 22.1039 0.255851 0.37902 -10.0586 -4.18103 38.0825 12.0552 -5.72206e-006 7.62938e-006 1.22008e-007 1.02917e-005 -1.87696e-006 14.9375 -0.010376 -0.000136971 9.96454 0.176796 3.41409 14.3578 0.505471 2.04041e-011 5.72142 3.29608 -2.76785 3.76991 -2.35624 12.3444 -173.968 30.9712 -77.9393 3.76994 -2.35619 -12.3441 7.52306 28.0359 115.838 11.8396 10.8645 -5.04978e-007 -176.777 -3.78817 179.494 9.73752 3.21675 -1.48567e-008 -2.83649 -2.81147e-007 1.4843e-007 5.17516 0.535695 -0.160391 -9.73591 -1.58293e-007 8.9822e-008 6.93464 -0.751801 -9.50202e-007 -83.0877 -3.93127 -3.44169 13.0965 7.6294e-006 -1.19209e-007 -5.25429 -2.85022 -13.4259 25.6158 2.28882e-005 -4.76837e-007 -6.60127e-008 2.49605e-008 2.39507e-008 
